<?xml version="1.0" encoding="UTF-8"?>
<svg version="1.1" xmlns="http://www.w3.org/2000/svg" width="1536" height="1024">
<path d="M0 0 C506.88 0 1013.76 0 1536 0 C1536 337.92 1536 675.84 1536 1024 C1029.12 1024 522.24 1024 0 1024 C0 686.08 0 348.16 0 0 Z " fill="#F6F7F0" transform="translate(0,0)"/>
<path d="M0 0 C4.05403587 1.48852289 5.13165819 3.61208066 7.0625 7.375 C13.39950842 18.64379536 22.15753821 26.99057752 33 34 C33.85335937 34.58136719 34.70671875 35.16273438 35.5859375 35.76171875 C61.70974828 52.41658379 98.47419838 58.14688078 128.88671875 53.38671875 C132.72390175 52.4915075 136.30450357 51.36538868 140 50 C140.73057617 49.74750488 141.46115234 49.49500977 142.21386719 49.23486328 C158.63285538 43.52640897 173.39153313 34.89931189 188.1640625 25.84765625 C199.76768521 18.73802701 211.4774766 12.36143966 224 7 C225.14984375 6.50242187 226.2996875 6.00484375 227.484375 5.4921875 C241.93134237 0.35309214 261.78219336 0.27916661 275.89868164 6.38354492 C277.62363764 7.20614428 279.31322004 8.10171481 281 9 C282.49466797 9.77730469 282.49466797 9.77730469 284.01953125 10.5703125 C289.32197045 13.64053604 293.22304144 17.19502109 297.375 21.6875 C303.04672124 27.57643609 308.16747235 29.25844596 316 31 C318.54591088 31.69292376 321.08770099 32.40117732 323.625 33.125 C324.77226563 33.43695313 325.91953125 33.74890625 327.1015625 34.0703125 C330 35 330 35 333 37 C333.06640625 39.25390625 333.06640625 39.25390625 332 42 C329.15855085 43.74581579 326.06407027 44.80332904 322.9375 45.9375 C311.92106653 50.01230435 302.65173889 55.69652222 297.25 66.5 C293.93729866 75.77556375 292.87253032 84.40250227 292.82421875 94.16015625 C292.80430865 95.93051579 292.78310192 97.70086111 292.76074219 99.47119141 C292.74958374 100.38523743 292.73842529 101.29928345 292.72692871 102.24102783 C292.50049885 118.44408194 292.03196139 134.21530008 288 150 C287.82484863 150.70511719 287.64969727 151.41023437 287.46923828 152.13671875 C281.14107261 176.7234864 269.14404211 198.4366512 252 217 C251.21238281 217.87011719 250.42476562 218.74023438 249.61328125 219.63671875 C233.20405754 236.93744528 212.92577585 248.30041797 191 257 C190.24106445 257.30212402 189.48212891 257.60424805 188.70019531 257.91552734 C177.71581846 262.21645935 166.61757523 265.00342424 155 267 C154.32598145 267.11859375 153.65196289 267.2371875 152.95751953 267.359375 C117.9098096 273.24591863 71.23467819 270.88857835 41.13671875 249.6875 C39.4375 248.375 39.4375 248.375 37 246 C37 245.01 37 244.02 37 243 C43.80907198 243.16497752 49.95151779 244.44564788 56.4375 246.375 C70.88279831 250.55840437 84.89422665 252.2493669 99.9375 252.3125 C101.03827881 252.31805908 102.13905762 252.32361816 103.27319336 252.3293457 C141.34580444 251.99514993 179.59368239 235.35391506 206.49121094 208.56152344 C225.28850846 189.10723299 237.00044156 163.73054709 237.23828125 136.5234375 C237.25038887 135.19102524 237.25038887 135.19102524 237.26274109 133.83169556 C237.27650066 131.96431385 237.28725871 130.09690785 237.29516602 128.22949219 C237.30674421 126.32284153 237.32728684 124.41622472 237.35668945 122.50976562 C237.39929124 119.74326747 237.41551736 116.97772253 237.42578125 114.2109375 C237.45204338 112.93734879 237.45204338 112.93734879 237.47883606 111.63803101 C237.46386366 107.5546644 237.33652916 105.52657522 235.08569336 102.00463867 C230.38183895 97.48358652 226.12007956 97.56407936 219.72338867 97.56176758 C212.44231351 97.76266755 208.83639279 100.32118459 203.75 105.125 C198.10717046 114.39536281 197.46236745 123.34560443 197.4375 134 C197.39217243 136.7621643 197.32606653 139.52357321 197.25390625 142.28515625 C197.23678589 142.95756851 197.21966553 143.62998077 197.20202637 144.32276917 C196.67507814 162.64733719 192.7537648 180.13182857 180 194 C179.21625 194.886875 178.4325 195.77375 177.625 196.6875 C169.00570617 204.28068742 159.00627594 210.05757653 147.34375 210.015625 C146.53099609 210.01336914 145.71824219 210.01111328 144.88085938 210.00878906 C144.26017578 210.00588867 143.63949219 210.00298828 143 210 C143.08564209 209.18023682 143.17128418 208.36047363 143.25952148 207.51586914 C143.58495671 204.38303317 143.90693397 201.24986353 144.22680664 198.11645508 C144.43056473 196.13010882 144.63806808 194.14414786 144.84570312 192.15820312 C146.83540196 172.60091942 147.13202342 153.1955277 147.06866455 133.55541992 C147.05828136 129.9881246 147.05383539 126.42082182 147.04882812 122.85351562 C147.03822702 115.90232593 147.02124796 108.95116512 147 102 C137.26343778 97.94637299 123.77024603 98.30867573 114 102.1875 C108.52534572 104.94042444 105.39704479 107.90443282 102 113 C101.66291311 115.1424708 101.66291311 115.1424708 101.65283203 117.53369141 C101.62567612 118.45460571 101.5985202 119.37552002 101.57054138 120.32434082 C101.54984085 121.32332397 101.52914032 122.32230713 101.5078125 123.3515625 C101.44495885 125.49367312 101.38137324 127.63576237 101.31713867 129.77783203 C101.28639252 130.89788635 101.25564636 132.01794067 101.22396851 133.17193604 C100.31764409 164.7940783 100.31764409 164.7940783 98.1875 178.125 C98.04650879 179.05521973 97.90551758 179.98543945 97.76025391 180.94384766 C96.72628826 186.61715339 94.86034075 191.61668854 91 196 C84.96016046 199.59790539 77.99083021 198.69217276 71.37109375 197.16015625 C47.81477999 189.86482237 25.21055095 172.62894976 13.30859375 150.9140625 C9.53035526 143.53966931 6.6628507 137.42873257 7 129 C7.56074219 129.28101563 8.12148438 129.56203125 8.69921875 129.8515625 C9.45847656 130.23054687 10.21773438 130.60953125 11 131 C11.74894531 131.37898437 12.49789063 131.75796875 13.26953125 132.1484375 C30.73921487 140.57467507 50.93005834 143.45104715 69.79296875 137.8515625 C71.94213487 137.02232672 73.96441717 136.07628517 76 135 C76 134.34 76 133.68 76 133 C75.30140869 132.90501221 74.60281738 132.81002441 73.88305664 132.7121582 C47.08266743 129.00363756 18.74774414 124.1378903 0.53125 102.0546875 C-8.60130373 89.80029142 -8.37689735 76.61593472 -8.3125 61.9375 C-8.31100952 61.10217743 -8.30951904 60.26685486 -8.3079834 59.40621948 C-8.14400894 8.14400894 -8.14400894 8.14400894 0 0 Z " fill="#308C54" transform="translate(352,361)"/>
<path d="M0 0 C0.886875 0.680625 1.77375 1.36125 2.6875 2.0625 C3.5021875 2.65160156 4.316875 3.24070312 5.15625 3.84765625 C7.91395576 6.26064879 9.23902627 8.29932451 10.875 11.5625 C11.60783203 12.97015625 11.60783203 12.97015625 12.35546875 14.40625 C16.01636536 24.45492808 16.00021544 34.99285691 15.98828125 45.56640625 C15.99217844 47.02180603 15.99651518 48.47720469 16.00126648 49.93260193 C16.00866309 52.95551276 16.00848164 55.97830659 16.00317383 59.0012207 C15.99732832 62.87494909 16.01446251 66.74820718 16.0375185 70.62185764 C16.05222373 73.61497288 16.05313299 76.60797314 16.05000877 79.60111809 C16.05052166 81.03047571 16.05575342 82.45983981 16.06582069 83.88916206 C16.07813023 85.8773242 16.06947122 87.86558298 16.05981445 89.85375977 C16.06044388 90.98338638 16.0610733 92.113013 16.0617218 93.27687073 C15.6875 96.0625 15.6875 96.0625 14.32696533 97.92727661 C11.89217798 99.6132089 9.93083618 99.43436712 6.99609375 99.42578125 C5.88685547 99.42513672 4.77761719 99.42449219 3.63476562 99.42382812 C1.89743164 99.3996582 1.89743164 99.3996582 0.125 99.375 C-1.03708984 99.37822266 -2.19917969 99.38144531 -3.39648438 99.38476562 C-12.04558054 99.32941946 -12.04558054 99.32941946 -14.3125 97.0625 C-14.5640564 94.52206421 -14.5640564 94.52206421 -14.56787109 91.27099609 C-14.57483002 90.05568207 -14.58178894 88.84036804 -14.58895874 87.58822632 C-14.5882777 86.93653851 -14.58759666 86.28485069 -14.58689499 85.61341476 C-14.58592967 83.56935683 -14.5988749 81.52582478 -14.61587524 79.48184204 C-14.66212455 73.6697406 -14.68671992 67.85768918 -14.69335938 62.04541016 C-14.69840053 58.48967303 -14.72278906 54.93447817 -14.75868607 51.37892532 C-14.77314712 49.37615338 -14.76587022 47.37326215 -14.75814819 45.37045288 C-14.83580791 38.14373539 -15.31785401 33.16536732 -19.3125 27.0625 C-23.74456237 23.38730871 -27.88519072 23.56116466 -33.43359375 23.7109375 C-38.49977428 24.32960269 -41.05006213 26.72552381 -44.43760681 30.31307983 C-46.69349316 33.62120398 -46.81139156 35.393735 -46.81079102 39.36572266 C-46.82082657 40.6169693 -46.83086212 41.86821594 -46.84120178 43.15737915 C-46.83714891 43.82048725 -46.83309605 44.48359535 -46.82892036 45.16679764 C-46.81625181 47.25198288 -46.82761094 49.33585199 -46.84495544 51.42098999 C-46.87160896 55.09252743 -46.87725264 58.76374004 -46.87585449 62.43536377 C-46.87362224 68.31879316 -46.88770158 74.20182238 -46.93144035 80.08509445 C-46.94128506 82.13878166 -46.93256115 84.1918396 -46.92274475 86.24551392 C-46.92962814 87.49045624 -46.93651154 88.73539856 -46.94360352 90.01806641 C-46.94264175 91.11551178 -46.94167999 92.21295715 -46.94068909 93.34365845 C-47.3125 96.0625 -47.3125 96.0625 -48.67955017 97.91601562 C-51.04613311 99.57757945 -52.88052053 99.45093433 -55.75 99.4609375 C-56.80960938 99.46480469 -57.86921875 99.46867188 -58.9609375 99.47265625 C-60.06695313 99.46105469 -61.17296875 99.44945312 -62.3125 99.4375 C-63.97152344 99.45490234 -63.97152344 99.45490234 -65.6640625 99.47265625 C-66.72367188 99.46878906 -67.78328125 99.46492187 -68.875 99.4609375 C-69.84566406 99.45755371 -70.81632813 99.45416992 -71.81640625 99.45068359 C-74.82477113 98.98283342 -75.51419689 98.48127144 -77.3125 96.0625 C-77.69104004 93.43304443 -77.69104004 93.43304443 -77.69726562 90.23339844 C-77.70737671 89.034953 -77.71748779 87.83650757 -77.72790527 86.60174561 C-77.72488403 85.30488831 -77.72186279 84.00803101 -77.71875 82.671875 C-77.72798562 81.32528422 -77.73895706 79.97870433 -77.75158691 78.63214111 C-77.78836928 74.35894182 -77.80206583 70.08583423 -77.8125 65.8125 C-77.82460561 60.87243673 -77.84634118 55.93280003 -77.89250183 50.99292755 C-77.90599467 49.02167746 -77.90171602 47.05033138 -77.89709473 45.07904053 C-77.98363311 34.33605383 -77.98363311 34.33605383 -83.75 25.625 C-88.95821922 23.34069332 -93.71155216 23.30083264 -99.3125 24.0625 C-103.80739573 26.22968187 -106.51719137 28.96334493 -109.3125 33.0625 C-109.90321921 36.08033191 -109.90321921 36.08033191 -109.81079102 39.36572266 C-109.82082657 40.6169693 -109.83086212 41.86821594 -109.84120178 43.15737915 C-109.83714891 43.82048725 -109.83309605 44.48359535 -109.82892036 45.16679764 C-109.81625181 47.25198288 -109.82761094 49.33585199 -109.84495544 51.42098999 C-109.87160896 55.09252743 -109.87725264 58.76374004 -109.87585449 62.43536377 C-109.87362224 68.31879316 -109.88770158 74.20182238 -109.93144035 80.08509445 C-109.94128506 82.13878166 -109.93256115 84.1918396 -109.92274475 86.24551392 C-109.92962814 87.49045624 -109.93651154 88.73539856 -109.94360352 90.01806641 C-109.94264175 91.11551178 -109.94167999 92.21295715 -109.94068909 93.34365845 C-110.3125 96.0625 -110.3125 96.0625 -111.67282104 97.91700745 C-114.10618717 99.61697607 -116.06280351 99.43438573 -119.00390625 99.42578125 C-120.11314453 99.42513672 -121.22238281 99.42449219 -122.36523438 99.42382812 C-124.10256836 99.3996582 -124.10256836 99.3996582 -125.875 99.375 C-127.03708984 99.37822266 -128.19917969 99.38144531 -129.39648438 99.38476562 C-138.04558054 99.32941946 -138.04558054 99.32941946 -140.3125 97.0625 C-140.51665425 94.06562075 -140.59563401 91.16077387 -140.5871582 88.16235352 C-140.5948246 86.77925995 -140.5948246 86.77925995 -140.60264587 85.3682251 C-140.61658718 82.30922012 -140.61558169 79.25043929 -140.61328125 76.19140625 C-140.61716572 74.07152726 -140.62149987 71.95164904 -140.62626648 69.83177185 C-140.63373849 65.38383463 -140.63343034 60.93597677 -140.62817383 56.48803711 C-140.62237826 50.78011722 -140.63930768 45.07252172 -140.6625185 39.36465549 C-140.67723041 34.98526603 -140.678131 30.60595513 -140.67500877 26.22654533 C-140.67552328 24.12174779 -140.6807851 22.016946 -140.69082069 19.91217232 C-140.70311837 16.97191244 -140.69643352 14.03229023 -140.68481445 11.09204102 C-140.69245819 10.21764877 -140.70010193 9.34325653 -140.70797729 8.44236755 C-140.65604709 2.51531622 -140.65604709 2.51531622 -139.01957989 0.35835171 C-133.13766112 -4.1066382 -119.24298659 -1.99573938 -112.3125 -1.9375 C-112.3125 3.3425 -112.3125 8.6225 -112.3125 14.0625 C-108.8162974 10.58179348 -108.8162974 10.58179348 -105.42578125 7 C-98.4218651 -0.53566684 -92.27546482 -4.07840056 -81.92773438 -4.52758789 C-73.86803616 -4.63266966 -66.51182237 -4.71111783 -60.3125 1.0625 C-56.25889153 5.11610847 -52.71669715 9.45743576 -49.3125 14.0625 C-48.9721875 13.56621094 -48.631875 13.06992187 -48.28125 12.55859375 C-36.4197382 -4.06645072 -18.79042804 -10.99062772 0 0 Z " fill="#26724A" transform="translate(858.3125,454.9375)"/>
<path d="M0 0 C9.54663548 8.7303804 16.43424475 19.81200624 17.22729492 33.01513672 C17.86894005 52.77456814 17.86894005 52.77456814 14.1015625 61.921875 C13.699375 62.90285156 13.2971875 63.88382813 12.8828125 64.89453125 C6.43754255 79.0562216 -2.88009585 86.3507737 -17.11425781 91.76464844 C-24.02570776 94.12050774 -30.5153719 94.37327569 -37.7734375 94.296875 C-38.86785156 94.30847656 -39.96226563 94.32007813 -41.08984375 94.33203125 C-55.7075799 94.28013396 -68.32462009 90.43108425 -79.1484375 80.359375 C-91.93250743 66.86281709 -93.49344915 52.63996464 -93.2109375 34.96484375 C-92.96585509 28.28532701 -92.00294293 22.91811601 -88.8984375 16.921875 C-88.26228516 15.63023437 -88.26228516 15.63023437 -87.61328125 14.3125 C-80.41031791 1.07028328 -69.07674263 -6.42280406 -55.01953125 -11.01953125 C-36.65965805 -15.02786998 -14.68298362 -12.14070024 0 0 Z " fill="#236F47" transform="translate(1143.8984375,462.078125)"/>
<path d="M0 0 C0.97066406 0.71349609 0.97066406 0.71349609 1.9609375 1.44140625 C7.40155278 5.65386576 9.85416535 10.56249604 12 17 C12.74409477 27.28314575 12.52534395 34.76012806 5.625 42.75 C0.67027007 46.99691137 -4.19855802 49.75047838 -10.4375 51.625 C-11.48683716 51.94247192 -11.48683716 51.94247192 -12.55737305 52.26635742 C-25.95057505 56.14488401 -39.18321872 56.26770943 -53 56 C-50.05076424 63.17458315 -46.97046769 68.26897209 -40 72 C-28.27093821 76.65311617 -15.57336467 73.82127919 -4 70 C-1.26920979 68.73748907 1.31478685 67.41324633 3.88671875 65.85546875 C6.60330504 64.75577855 8.22960034 65.20915036 11 66 C11.40435364 69.32869697 11.72043685 72.65855474 12 76 C12.13728516 77.47146484 12.13728516 77.47146484 12.27734375 78.97265625 C12.33019531 79.93042969 12.38304687 80.88820313 12.4375 81.875 C12.49808594 82.75929688 12.55867187 83.64359375 12.62109375 84.5546875 C12 87 12 87 9.4453125 89.15234375 C5.86466033 91.07258012 2.30115584 92.4822874 -1.5625 93.6875 C-2.20896484 93.89955078 -2.85542969 94.11160156 -3.52148438 94.33007812 C-11.79526138 96.99822391 -19.34885538 97.24729037 -28 97.3125 C-29.87751953 97.35600586 -29.87751953 97.35600586 -31.79296875 97.40039062 C-44.6672055 97.48710828 -55.44491609 94.41658108 -66 87 C-66.63550781 86.56042969 -67.27101563 86.12085938 -67.92578125 85.66796875 C-76.67759336 78.93431287 -82.51779579 67.85732836 -84 57 C-85.53664902 38.3147514 -84.1294221 23.00937155 -72 8 C-54.95026513 -10.94414986 -20.59143626 -16.77668811 0 0 Z " fill="#247148" transform="translate(973,459)"/>
<path d="M0 0 C1.62969759 1.62969759 1.13845731 3.45647118 1.15148926 5.70715332 C1.15983292 6.72519547 1.16817657 7.74323761 1.17677307 8.79212952 C1.1830497 10.48153908 1.1830497 10.48153908 1.18945312 12.20507812 C1.19774643 13.3837999 1.20603973 14.56252167 1.21458435 15.77696228 C1.23659849 19.01859391 1.25427841 22.26021733 1.27039146 25.50188255 C1.28850631 28.88739183 1.31297224 32.27285387 1.33703613 35.6583252 C1.40232051 45.00558379 1.45769537 54.35289633 1.51302338 63.7002182 C1.56381901 72.26470731 1.61667306 80.8291701 1.67754889 89.39359426 C1.70129279 92.76776261 1.7228674 96.14191778 1.73963928 99.51612854 C1.75892232 103.27576858 1.78409494 107.03532649 1.81054688 110.79492188 C1.8168235 112.48433144 1.8168235 112.48433144 1.82322693 114.20787048 C1.83157059 115.22591263 1.83991425 116.24395477 1.84851074 117.29284668 C1.85366447 118.18292168 1.85881821 119.07299667 1.86412811 119.99004364 C1.77848082 121.99774932 1.77848082 121.99774932 3 123 C5.97 123.33 8.94 123.66 12 124 C12 130.6 12 137.2 12 144 C4.11116917 146.25395167 4.11116917 146.25395167 0.87890625 146.265625 C0.17056641 146.26820313 -0.53777344 146.27078125 -1.26757812 146.2734375 C-1.98365234 146.26570312 -2.69972656 146.25796875 -3.4375 146.25 C-4.14970703 146.25773438 -4.86191406 146.26546875 -5.59570312 146.2734375 C-12.88170487 146.24696701 -19.63564982 145.36435018 -25 140 C-29.96819976 133.25744318 -29.15748753 125.28403921 -29.17700195 117.27490234 C-29.18357315 116.10026932 -29.19014435 114.92563629 -29.19691467 113.71540833 C-29.21658435 109.83891737 -29.22829185 105.9624649 -29.23828125 102.0859375 C-29.24233189 100.74811407 -29.2464489 99.41029083 -29.25063133 98.0724678 C-29.26964705 91.79232902 -29.28389183 85.5122018 -29.2922433 79.23203981 C-29.30203598 71.9890779 -29.32842299 64.74641993 -29.36874419 57.50356519 C-29.39888171 51.89748067 -29.41370945 46.29148352 -29.41702431 40.68531954 C-29.4193753 37.33948708 -29.42834307 33.99398074 -29.45348549 30.64823532 C-29.47771153 26.92067601 -29.47694258 23.19392174 -29.4699707 19.46630859 C-29.48278076 18.35867661 -29.49559082 17.25104462 -29.50878906 16.10984802 C-29.50184525 15.09490768 -29.49490143 14.07996735 -29.48774719 13.03427124 C-29.49013555 12.15345572 -29.4925239 11.27264019 -29.49498463 10.36513329 C-28.8324122 7.19923272 -27.47418382 6.01747824 -25 4 C-17.40558497 1.09150062 -8.1131452 -0.43933999 0 0 Z " fill="#267149" transform="translate(1031,409)"/>
<path d="M0 0 C6.44088186 4.67811419 10.01614364 11.77551206 11.9140625 19.3671875 C12.99973295 30.65816014 12.05281422 41.38532767 5.6015625 51.1171875 C1.22995855 56.27568016 -4.15595993 59.04846036 -10.8046875 60.09375 C-18.94036491 60.48409816 -23.51682386 58.42834158 -29.453125 53.11328125 C-36.25144081 46.09511941 -38.14757693 37.54319243 -38.2109375 28.0546875 C-38.00371701 16.97505633 -36.04474602 9.83414654 -28.09375 1.69140625 C-19.9078277 -5.62631217 -9.21689982 -5.1790199 0 0 Z " fill="#F3F5ED" transform="translate(1118.7734375,475.3828125)"/>
<path d="M0 0 C2.90586178 1.71493482 5.09524044 3.08929099 6.5 6.25 C7.10375428 11.00456496 7.28892127 13.0666181 4.625 17.0625 C-3.68631465 22.88042026 -14.03088169 23.41455226 -23.875 23.3125 C-24.70644531 23.30798828 -25.53789063 23.30347656 -26.39453125 23.29882812 C-28.42971897 23.28713164 -30.46486923 23.26919935 -32.5 23.25 C-32.68858394 15.71449994 -31.95699305 10.92350619 -26.62890625 5.26171875 C-18.99898108 -1.70473467 -9.85715893 -4.62794523 0 0 Z " fill="#F2F5EC" transform="translate(951.5,472.75)"/>
<path d="M0 0 C3.375 2 3.375 2 6 5 C6.808765 8.16622893 6.78660985 10.8305939 6 14 C2.89621518 17.9205703 0.67069893 19.7429694 -4.25 20.5 C-8.17870541 19.97617261 -8.84216165 19.71246763 -11.4375 17 C-13.45809047 14.31674276 -14.45736984 12.23745731 -14.6875 8.875 C-13.87043605 4.26973045 -12.6665737 2.81388214 -9 0 C-5.35845458 -1.21384847 -3.69332968 -1.01385521 0 0 Z " fill="#F0F5EC" transform="translate(614,389)"/>
<path d="M0 0 C0.99 0.33 1.98 0.66 3 1 C0.25 6.875 0.25 6.875 -2 8 C-1.125 1.125 -1.125 1.125 0 0 Z " fill="#4AA667" transform="translate(352,361)"/>
<path d="M0 0 C-2.97 1.32 -5.94 2.64 -9 4 C-9.66 3.34 -10.32 2.68 -11 2 C-4.5 -1.125 -4.5 -1.125 0 0 Z " fill="#499068" transform="translate(928,453)"/>
</svg>
